# xmcd
# 
# Track frame offsets:
#     150
#     14288
#     64022
# 
# Disc length: 1200
# 
# Revision: 0
# Processed by: cddbd v1.5.2PL0 Copyright (c) Steve Scherf et al.
# Submitted via: fre:ac v1.0.17
# 
DISCID=1c04ae03
DTITLE=Moby - lift me up (Singel)
DYEAR=2005
DGENRE=Electronic
TTITLE0=lift me up (radio mix)
TTITLE1=mulholland
TTITLE2=Data track
EXTD=
EXTT0=
EXTT1=
EXTT2=
PLAYORDER=
